<mxfile host="app.diagrams.net" modified="2020-11-25T14:00:08.398Z" agent="5.0 (Windows NT 10.0; Win64; x64) AppleWebKit/537.36 (KHTML, like Gecko) Chrome/86.0.4240.198 Safari/537.36" etag="TskIKG-rvduB1HKHkrus" version="13.10.0" type="github">
  <diagram name="Page-1" id="ad52d381-51e7-2e0d-a935-2d0ddd2fd229">
    <mxGraphModel dx="2926" dy="840" grid="1" gridSize="10" guides="1" tooltips="1" connect="1" arrows="1" fold="1" page="1" pageScale="1" pageWidth="1100" pageHeight="850" background="#ffffff" math="0" shadow="0">
      <root>
        <mxCell id="0" />
        <mxCell id="1" parent="0" />
        <mxCell id="iMhQcT8qadYTa4mWiRM_-1" value="영화" style="rounded=0;whiteSpace=wrap;html=1;" parent="1" vertex="1">
          <mxGeometry x="-60" y="190" width="120" height="60" as="geometry" />
        </mxCell>
        <mxCell id="iMhQcT8qadYTa4mWiRM_-7" value="제공" style="rhombus;whiteSpace=wrap;html=1;" parent="1" vertex="1">
          <mxGeometry x="200" y="195" width="120" height="50" as="geometry" />
        </mxCell>
        <mxCell id="iMhQcT8qadYTa4mWiRM_-8" value="회원" style="rounded=0;whiteSpace=wrap;html=1;" parent="1" vertex="1">
          <mxGeometry x="460" y="190" width="120" height="60" as="geometry" />
        </mxCell>
        <mxCell id="iMhQcT8qadYTa4mWiRM_-9" value="" style="endArrow=none;html=1;entryX=1;entryY=0.5;entryDx=0;entryDy=0;exitX=0;exitY=0.5;exitDx=0;exitDy=0;" parent="1" source="iMhQcT8qadYTa4mWiRM_-7" target="iMhQcT8qadYTa4mWiRM_-1" edge="1">
          <mxGeometry width="50" height="50" relative="1" as="geometry">
            <mxPoint x="-70" y="230" as="sourcePoint" />
            <mxPoint x="-30" y="230" as="targetPoint" />
          </mxGeometry>
        </mxCell>
        <mxCell id="iMhQcT8qadYTa4mWiRM_-10" value="" style="endArrow=none;html=1;exitX=1;exitY=0.5;exitDx=0;exitDy=0;" parent="1" source="iMhQcT8qadYTa4mWiRM_-7" target="iMhQcT8qadYTa4mWiRM_-8" edge="1">
          <mxGeometry width="50" height="50" relative="1" as="geometry">
            <mxPoint x="290" y="230" as="sourcePoint" />
            <mxPoint x="250" y="230" as="targetPoint" />
          </mxGeometry>
        </mxCell>
        <mxCell id="iMhQcT8qadYTa4mWiRM_-12" value="조회하다" style="rhombus;whiteSpace=wrap;html=1;" parent="1" vertex="1">
          <mxGeometry x="460" y="60" width="120" height="50" as="geometry" />
        </mxCell>
        <mxCell id="iMhQcT8qadYTa4mWiRM_-13" value="" style="endArrow=none;html=1;entryX=0;entryY=0.5;entryDx=0;entryDy=0;exitX=0;exitY=0;exitDx=0;exitDy=0;" parent="1" source="iMhQcT8qadYTa4mWiRM_-8" target="iMhQcT8qadYTa4mWiRM_-12" edge="1">
          <mxGeometry width="50" height="50" relative="1" as="geometry">
            <mxPoint x="380" y="330" as="sourcePoint" />
            <mxPoint x="430" y="280" as="targetPoint" />
          </mxGeometry>
        </mxCell>
        <mxCell id="iMhQcT8qadYTa4mWiRM_-15" value="" style="endArrow=none;html=1;entryX=1;entryY=0.5;entryDx=0;entryDy=0;exitX=1;exitY=0;exitDx=0;exitDy=0;" parent="1" source="iMhQcT8qadYTa4mWiRM_-8" target="iMhQcT8qadYTa4mWiRM_-12" edge="1">
          <mxGeometry width="50" height="50" relative="1" as="geometry">
            <mxPoint x="380" y="330" as="sourcePoint" />
            <mxPoint x="430" y="280" as="targetPoint" />
          </mxGeometry>
        </mxCell>
        <mxCell id="iMhQcT8qadYTa4mWiRM_-16" value="작성하다" style="rhombus;whiteSpace=wrap;html=1;" parent="1" vertex="1">
          <mxGeometry x="720" y="195" width="120" height="50" as="geometry" />
        </mxCell>
        <mxCell id="iMhQcT8qadYTa4mWiRM_-17" value="리뷰" style="rounded=0;whiteSpace=wrap;html=1;" parent="1" vertex="1">
          <mxGeometry x="720" y="365" width="120" height="60" as="geometry" />
        </mxCell>
        <mxCell id="iMhQcT8qadYTa4mWiRM_-18" value="" style="endArrow=none;html=1;entryX=1;entryY=0.5;entryDx=0;entryDy=0;exitX=0;exitY=0.5;exitDx=0;exitDy=0;" parent="1" source="iMhQcT8qadYTa4mWiRM_-16" target="iMhQcT8qadYTa4mWiRM_-8" edge="1">
          <mxGeometry width="50" height="50" relative="1" as="geometry">
            <mxPoint x="380" y="330" as="sourcePoint" />
            <mxPoint x="430" y="280" as="targetPoint" />
          </mxGeometry>
        </mxCell>
        <mxCell id="iMhQcT8qadYTa4mWiRM_-21" value="" style="endArrow=none;html=1;entryX=0.5;entryY=1;entryDx=0;entryDy=0;" parent="1" source="iMhQcT8qadYTa4mWiRM_-17" target="iMhQcT8qadYTa4mWiRM_-16" edge="1">
          <mxGeometry width="50" height="50" relative="1" as="geometry">
            <mxPoint x="380" y="330" as="sourcePoint" />
            <mxPoint x="430" y="280" as="targetPoint" />
          </mxGeometry>
        </mxCell>
        <mxCell id="iMhQcT8qadYTa4mWiRM_-22" value="" style="endArrow=none;html=1;exitX=1;exitY=0.5;exitDx=0;exitDy=0;entryX=0.5;entryY=0;entryDx=0;entryDy=0;" parent="1" source="iMhQcT8qadYTa4mWiRM_-17" target="iMhQcT8qadYTa4mWiRM_-7" edge="1">
          <mxGeometry width="50" height="50" relative="1" as="geometry">
            <mxPoint x="380" y="330" as="sourcePoint" />
            <mxPoint x="260" y="240" as="targetPoint" />
            <Array as="points">
              <mxPoint x="920" y="395" />
              <mxPoint x="920" y="10" />
              <mxPoint x="260" y="10" />
            </Array>
          </mxGeometry>
        </mxCell>
        <mxCell id="cognFk9Jnt_qJK0dII5s-1" value="" style="endArrow=none;html=1;exitX=1;exitY=0;exitDx=0;exitDy=0;entryX=0;entryY=0.75;entryDx=0;entryDy=0;" edge="1" parent="1" source="cognFk9Jnt_qJK0dII5s-2" target="iMhQcT8qadYTa4mWiRM_-1">
          <mxGeometry width="50" height="50" relative="1" as="geometry">
            <mxPoint x="-80" y="120" as="sourcePoint" />
            <mxPoint y="190" as="targetPoint" />
          </mxGeometry>
        </mxCell>
        <mxCell id="cognFk9Jnt_qJK0dII5s-2" value="감독" style="ellipse;whiteSpace=wrap;html=1;" vertex="1" parent="1">
          <mxGeometry x="-330" y="400" width="120" height="50" as="geometry" />
        </mxCell>
        <mxCell id="cognFk9Jnt_qJK0dII5s-3" value="영화 ID" style="ellipse;whiteSpace=wrap;html=1;" vertex="1" parent="1">
          <mxGeometry x="-210" y="10" width="120" height="50" as="geometry" />
        </mxCell>
        <mxCell id="cognFk9Jnt_qJK0dII5s-6" value="영화이름" style="ellipse;whiteSpace=wrap;html=1;" vertex="1" parent="1">
          <mxGeometry x="-330" y="40" width="120" height="50" as="geometry" />
        </mxCell>
        <mxCell id="cognFk9Jnt_qJK0dII5s-7" value="개봉일자" style="ellipse;whiteSpace=wrap;html=1;" vertex="1" parent="1">
          <mxGeometry x="-330" y="100" width="120" height="50" as="geometry" />
        </mxCell>
        <mxCell id="cognFk9Jnt_qJK0dII5s-8" value="러닝타임" style="ellipse;whiteSpace=wrap;html=1;" vertex="1" parent="1">
          <mxGeometry x="-330" y="280" width="120" height="50" as="geometry" />
        </mxCell>
        <mxCell id="cognFk9Jnt_qJK0dII5s-9" value="영화이름" style="ellipse;whiteSpace=wrap;html=1;" vertex="1" parent="1">
          <mxGeometry x="-330" y="160" width="120" height="50" as="geometry" />
        </mxCell>
        <mxCell id="cognFk9Jnt_qJK0dII5s-10" value="장르" style="ellipse;whiteSpace=wrap;html=1;" vertex="1" parent="1">
          <mxGeometry x="-330" y="340" width="120" height="50" as="geometry" />
        </mxCell>
        <mxCell id="cognFk9Jnt_qJK0dII5s-12" value="주요배우" style="ellipse;whiteSpace=wrap;html=1;" vertex="1" parent="1">
          <mxGeometry x="-330" y="220" width="120" height="50" as="geometry" />
        </mxCell>
        <mxCell id="cognFk9Jnt_qJK0dII5s-13" style="edgeStyle=orthogonalEdgeStyle;rounded=0;orthogonalLoop=1;jettySize=auto;html=1;exitX=0.5;exitY=1;exitDx=0;exitDy=0;" edge="1" parent="1" source="cognFk9Jnt_qJK0dII5s-12" target="cognFk9Jnt_qJK0dII5s-12">
          <mxGeometry relative="1" as="geometry" />
        </mxCell>
        <mxCell id="cognFk9Jnt_qJK0dII5s-14" value="" style="endArrow=none;html=1;entryX=0.5;entryY=1;entryDx=0;entryDy=0;exitX=0;exitY=0.25;exitDx=0;exitDy=0;" edge="1" parent="1" source="iMhQcT8qadYTa4mWiRM_-1" target="cognFk9Jnt_qJK0dII5s-3">
          <mxGeometry width="50" height="50" relative="1" as="geometry">
            <mxPoint x="280" y="340" as="sourcePoint" />
            <mxPoint x="330" y="290" as="targetPoint" />
          </mxGeometry>
        </mxCell>
        <mxCell id="cognFk9Jnt_qJK0dII5s-15" value="" style="endArrow=none;html=1;entryX=1;entryY=1;entryDx=0;entryDy=0;" edge="1" parent="1" target="cognFk9Jnt_qJK0dII5s-7">
          <mxGeometry width="50" height="50" relative="1" as="geometry">
            <mxPoint x="-60" y="210" as="sourcePoint" />
            <mxPoint x="330" y="290" as="targetPoint" />
          </mxGeometry>
        </mxCell>
        <mxCell id="cognFk9Jnt_qJK0dII5s-16" value="" style="endArrow=none;html=1;entryX=1;entryY=1;entryDx=0;entryDy=0;exitX=0;exitY=0.25;exitDx=0;exitDy=0;" edge="1" parent="1" source="iMhQcT8qadYTa4mWiRM_-1" target="cognFk9Jnt_qJK0dII5s-6">
          <mxGeometry width="50" height="50" relative="1" as="geometry">
            <mxPoint y="190" as="sourcePoint" />
            <mxPoint x="80" y="20" as="targetPoint" />
          </mxGeometry>
        </mxCell>
        <mxCell id="cognFk9Jnt_qJK0dII5s-17" value="" style="endArrow=none;html=1;entryX=1;entryY=0.5;entryDx=0;entryDy=0;" edge="1" parent="1" target="cognFk9Jnt_qJK0dII5s-9">
          <mxGeometry width="50" height="50" relative="1" as="geometry">
            <mxPoint x="-60" y="210" as="sourcePoint" />
            <mxPoint x="170" y="60" as="targetPoint" />
          </mxGeometry>
        </mxCell>
        <mxCell id="cognFk9Jnt_qJK0dII5s-18" value="" style="endArrow=none;html=1;entryX=1;entryY=0.5;entryDx=0;entryDy=0;exitX=0;exitY=0.5;exitDx=0;exitDy=0;" edge="1" parent="1" source="iMhQcT8qadYTa4mWiRM_-1" target="cognFk9Jnt_qJK0dII5s-12">
          <mxGeometry width="50" height="50" relative="1" as="geometry">
            <mxPoint y="180" as="sourcePoint" />
            <mxPoint x="-6.963237148479038" y="12.419642106568062" as="targetPoint" />
          </mxGeometry>
        </mxCell>
        <mxCell id="cognFk9Jnt_qJK0dII5s-19" value="" style="endArrow=none;html=1;entryX=1;entryY=0.5;entryDx=0;entryDy=0;exitX=0;exitY=0.5;exitDx=0;exitDy=0;" edge="1" parent="1" source="iMhQcT8qadYTa4mWiRM_-1" target="cognFk9Jnt_qJK0dII5s-8">
          <mxGeometry width="50" height="50" relative="1" as="geometry">
            <mxPoint y="190" as="sourcePoint" />
            <mxPoint x="3.0367628515209617" y="22.419642106568062" as="targetPoint" />
          </mxGeometry>
        </mxCell>
        <mxCell id="cognFk9Jnt_qJK0dII5s-20" value="" style="endArrow=none;html=1;entryX=1;entryY=0;entryDx=0;entryDy=0;" edge="1" parent="1" target="cognFk9Jnt_qJK0dII5s-10">
          <mxGeometry width="50" height="50" relative="1" as="geometry">
            <mxPoint x="-60" y="230" as="sourcePoint" />
            <mxPoint x="13.036762851520962" y="32.41964210656806" as="targetPoint" />
          </mxGeometry>
        </mxCell>
        <mxCell id="cognFk9Jnt_qJK0dII5s-21" value="&lt;b&gt;&lt;u&gt;리뷰번호&lt;/u&gt;&lt;/b&gt;" style="ellipse;whiteSpace=wrap;html=1;" vertex="1" parent="1">
          <mxGeometry x="880" y="420" width="120" height="50" as="geometry" />
        </mxCell>
        <mxCell id="cognFk9Jnt_qJK0dII5s-23" value="" style="endArrow=none;html=1;entryX=0.5;entryY=1;entryDx=0;entryDy=0;exitX=0.5;exitY=0;exitDx=0;exitDy=0;" edge="1" parent="1" source="cognFk9Jnt_qJK0dII5s-24" target="iMhQcT8qadYTa4mWiRM_-8">
          <mxGeometry width="50" height="50" relative="1" as="geometry">
            <mxPoint x="520" y="360" as="sourcePoint" />
            <mxPoint x="330" y="290" as="targetPoint" />
          </mxGeometry>
        </mxCell>
        <mxCell id="cognFk9Jnt_qJK0dII5s-24" value="작성하다" style="rhombus;whiteSpace=wrap;html=1;" vertex="1" parent="1">
          <mxGeometry x="460" y="315" width="120" height="50" as="geometry" />
        </mxCell>
        <mxCell id="cognFk9Jnt_qJK0dII5s-26" value="리뷰제목" style="ellipse;whiteSpace=wrap;html=1;" vertex="1" parent="1">
          <mxGeometry x="870" y="480" width="120" height="50" as="geometry" />
        </mxCell>
        <mxCell id="cognFk9Jnt_qJK0dII5s-27" value="리뷰내용" style="ellipse;whiteSpace=wrap;html=1;" vertex="1" parent="1">
          <mxGeometry x="850" y="540" width="120" height="50" as="geometry" />
        </mxCell>
        <mxCell id="cognFk9Jnt_qJK0dII5s-29" value="&lt;u&gt;영화 ID&lt;/u&gt;" style="ellipse;whiteSpace=wrap;html=1;" vertex="1" parent="1">
          <mxGeometry x="720" y="540" width="120" height="50" as="geometry" />
        </mxCell>
        <mxCell id="cognFk9Jnt_qJK0dII5s-30" value="영화명" style="ellipse;whiteSpace=wrap;html=1;" vertex="1" parent="1">
          <mxGeometry x="610" y="510" width="120" height="50" as="geometry" />
        </mxCell>
        <mxCell id="cognFk9Jnt_qJK0dII5s-31" value="별점" style="ellipse;whiteSpace=wrap;html=1;" vertex="1" parent="1">
          <mxGeometry x="100" y="280" width="120" height="50" as="geometry" />
        </mxCell>
        <mxCell id="cognFk9Jnt_qJK0dII5s-32" value="평가" style="rounded=0;whiteSpace=wrap;html=1;" vertex="1" parent="1">
          <mxGeometry x="270" y="310" width="120" height="60" as="geometry" />
        </mxCell>
        <mxCell id="cognFk9Jnt_qJK0dII5s-33" value="&lt;u&gt;리뷰번호&lt;/u&gt;" style="ellipse;whiteSpace=wrap;html=1;" vertex="1" parent="1">
          <mxGeometry x="100" y="375" width="120" height="50" as="geometry" />
        </mxCell>
        <mxCell id="cognFk9Jnt_qJK0dII5s-34" value="" style="endArrow=none;html=1;exitX=1;exitY=0.5;exitDx=0;exitDy=0;entryX=0.106;entryY=0.393;entryDx=0;entryDy=0;entryPerimeter=0;" edge="1" parent="1" target="cognFk9Jnt_qJK0dII5s-24">
          <mxGeometry width="50" height="50" relative="1" as="geometry">
            <mxPoint x="390" y="335" as="sourcePoint" />
            <mxPoint x="460" y="335" as="targetPoint" />
            <Array as="points">
              <mxPoint x="420" y="335" />
              <mxPoint x="430" y="335" />
            </Array>
          </mxGeometry>
        </mxCell>
        <mxCell id="cognFk9Jnt_qJK0dII5s-35" value="" style="endArrow=none;html=1;exitX=0;exitY=0.5;exitDx=0;exitDy=0;" edge="1" parent="1" source="cognFk9Jnt_qJK0dII5s-32" target="cognFk9Jnt_qJK0dII5s-31">
          <mxGeometry width="50" height="50" relative="1" as="geometry">
            <mxPoint x="270" y="350" as="sourcePoint" />
            <mxPoint x="310" y="270" as="targetPoint" />
          </mxGeometry>
        </mxCell>
        <mxCell id="cognFk9Jnt_qJK0dII5s-36" value="" style="endArrow=none;html=1;entryX=0.5;entryY=0;entryDx=0;entryDy=0;exitX=0;exitY=0.5;exitDx=0;exitDy=0;" edge="1" parent="1" source="cognFk9Jnt_qJK0dII5s-32" target="cognFk9Jnt_qJK0dII5s-33">
          <mxGeometry width="50" height="50" relative="1" as="geometry">
            <mxPoint x="260" y="320" as="sourcePoint" />
            <mxPoint x="310" y="270" as="targetPoint" />
          </mxGeometry>
        </mxCell>
        <mxCell id="cognFk9Jnt_qJK0dII5s-37" value="" style="endArrow=none;html=1;exitX=0.558;exitY=0.056;exitDx=0;exitDy=0;exitPerimeter=0;" edge="1" parent="1">
          <mxGeometry width="50" height="50" relative="1" as="geometry">
            <mxPoint x="333.9599999999998" y="476.80000000000007" as="sourcePoint" />
            <mxPoint x="334" y="370" as="targetPoint" />
          </mxGeometry>
        </mxCell>
        <mxCell id="cognFk9Jnt_qJK0dII5s-38" value="" style="rhombus;whiteSpace=wrap;html=1;" vertex="1" parent="1">
          <mxGeometry x="270" y="474" width="120" height="50" as="geometry" />
        </mxCell>
        <mxCell id="cognFk9Jnt_qJK0dII5s-39" value="" style="endArrow=none;html=1;entryX=0;entryY=0.5;entryDx=0;entryDy=0;exitX=1;exitY=0.5;exitDx=0;exitDy=0;" edge="1" parent="1" source="cognFk9Jnt_qJK0dII5s-38" target="iMhQcT8qadYTa4mWiRM_-17">
          <mxGeometry width="50" height="50" relative="1" as="geometry">
            <mxPoint x="260" y="320" as="sourcePoint" />
            <mxPoint x="310" y="270" as="targetPoint" />
            <Array as="points">
              <mxPoint x="580" y="500" />
              <mxPoint x="580" y="395" />
            </Array>
          </mxGeometry>
        </mxCell>
        <mxCell id="cognFk9Jnt_qJK0dII5s-40" value="평가" style="rounded=0;whiteSpace=wrap;html=1;" vertex="1" parent="1">
          <mxGeometry x="280" y="320" width="100" height="40" as="geometry" />
        </mxCell>
        <mxCell id="cognFk9Jnt_qJK0dII5s-41" value="부여하다" style="rhombus;whiteSpace=wrap;html=1;" vertex="1" parent="1">
          <mxGeometry x="282" y="479" width="96" height="40" as="geometry" />
        </mxCell>
        <mxCell id="cognFk9Jnt_qJK0dII5s-43" value="" style="endArrow=none;html=1;entryX=0.5;entryY=1;entryDx=0;entryDy=0;exitX=0.463;exitY=0.032;exitDx=0;exitDy=0;exitPerimeter=0;" edge="1" parent="1" source="cognFk9Jnt_qJK0dII5s-38">
          <mxGeometry width="50" height="50" relative="1" as="geometry">
            <mxPoint x="326" y="460" as="sourcePoint" />
            <mxPoint x="325.83" y="370" as="targetPoint" />
          </mxGeometry>
        </mxCell>
        <mxCell id="cognFk9Jnt_qJK0dII5s-45" value="" style="endArrow=none;html=1;entryX=0.75;entryY=1;entryDx=0;entryDy=0;exitX=0;exitY=0.5;exitDx=0;exitDy=0;" edge="1" parent="1" source="cognFk9Jnt_qJK0dII5s-21" target="iMhQcT8qadYTa4mWiRM_-17">
          <mxGeometry width="50" height="50" relative="1" as="geometry">
            <mxPoint x="660" y="470" as="sourcePoint" />
            <mxPoint x="710" y="420" as="targetPoint" />
          </mxGeometry>
        </mxCell>
        <mxCell id="cognFk9Jnt_qJK0dII5s-46" value="" style="endArrow=none;html=1;entryX=0.603;entryY=0.997;entryDx=0;entryDy=0;exitX=0;exitY=0;exitDx=0;exitDy=0;entryPerimeter=0;" edge="1" parent="1" source="cognFk9Jnt_qJK0dII5s-26" target="iMhQcT8qadYTa4mWiRM_-17">
          <mxGeometry width="50" height="50" relative="1" as="geometry">
            <mxPoint x="660" y="470" as="sourcePoint" />
            <mxPoint x="710" y="420" as="targetPoint" />
          </mxGeometry>
        </mxCell>
        <mxCell id="cognFk9Jnt_qJK0dII5s-47" value="" style="endArrow=none;html=1;entryX=0.5;entryY=1;entryDx=0;entryDy=0;exitX=0;exitY=0;exitDx=0;exitDy=0;" edge="1" parent="1" source="cognFk9Jnt_qJK0dII5s-27" target="iMhQcT8qadYTa4mWiRM_-17">
          <mxGeometry width="50" height="50" relative="1" as="geometry">
            <mxPoint x="660" y="470" as="sourcePoint" />
            <mxPoint x="710" y="420" as="targetPoint" />
          </mxGeometry>
        </mxCell>
        <mxCell id="cognFk9Jnt_qJK0dII5s-48" value="" style="endArrow=none;html=1;entryX=0.419;entryY=0.997;entryDx=0;entryDy=0;exitX=0.5;exitY=0;exitDx=0;exitDy=0;entryPerimeter=0;" edge="1" parent="1" source="cognFk9Jnt_qJK0dII5s-29" target="iMhQcT8qadYTa4mWiRM_-17">
          <mxGeometry width="50" height="50" relative="1" as="geometry">
            <mxPoint x="660" y="470" as="sourcePoint" />
            <mxPoint x="710" y="420" as="targetPoint" />
          </mxGeometry>
        </mxCell>
        <mxCell id="cognFk9Jnt_qJK0dII5s-49" value="" style="endArrow=none;html=1;entryX=0.25;entryY=1;entryDx=0;entryDy=0;exitX=0.5;exitY=0;exitDx=0;exitDy=0;" edge="1" parent="1" source="cognFk9Jnt_qJK0dII5s-30" target="iMhQcT8qadYTa4mWiRM_-17">
          <mxGeometry width="50" height="50" relative="1" as="geometry">
            <mxPoint x="660" y="470" as="sourcePoint" />
            <mxPoint x="710" y="420" as="targetPoint" />
          </mxGeometry>
        </mxCell>
        <mxCell id="cognFk9Jnt_qJK0dII5s-50" value="" style="endArrow=none;html=1;exitX=1;exitY=0.5;exitDx=0;exitDy=0;" edge="1" parent="1">
          <mxGeometry width="50" height="50" relative="1" as="geometry">
            <mxPoint x="390" y="344" as="sourcePoint" />
            <mxPoint x="470" y="344" as="targetPoint" />
            <Array as="points">
              <mxPoint x="420" y="344" />
            </Array>
          </mxGeometry>
        </mxCell>
        <mxCell id="cognFk9Jnt_qJK0dII5s-51" value="작성하다" style="rhombus;whiteSpace=wrap;html=1;" vertex="1" parent="1">
          <mxGeometry x="472" y="320" width="96" height="40" as="geometry" />
        </mxCell>
        <mxCell id="cognFk9Jnt_qJK0dII5s-55" value="회원 ID" style="ellipse;whiteSpace=wrap;html=1;" vertex="1" parent="1">
          <mxGeometry x="580" y="30" width="120" height="50" as="geometry" />
        </mxCell>
        <mxCell id="cognFk9Jnt_qJK0dII5s-56" value="닉네임" style="ellipse;whiteSpace=wrap;html=1;" vertex="1" parent="1">
          <mxGeometry x="700" y="40" width="120" height="50" as="geometry" />
        </mxCell>
        <mxCell id="cognFk9Jnt_qJK0dII5s-57" value="생년월일" style="ellipse;whiteSpace=wrap;html=1;" vertex="1" parent="1">
          <mxGeometry x="770" y="90" width="120" height="50" as="geometry" />
        </mxCell>
        <mxCell id="cognFk9Jnt_qJK0dII5s-58" value="성별" style="ellipse;whiteSpace=wrap;html=1;" vertex="1" parent="1">
          <mxGeometry x="690" y="130" width="120" height="50" as="geometry" />
        </mxCell>
      </root>
    </mxGraphModel>
  </diagram>
</mxfile>
